<svg height="512" viewBox="0 0 512 512" width="512" xmlns="http://www.w3.org/2000/svg"><g id="flat"><path d="m184 400c-4.418 0-8 4.418-8 0v-144c0-4.418 3.582 0 8 0s8-4.418 8 0v144c0 4.418-3.582 0-8 0z" fill="#0276b4"/><path d="m256 392c-4.418 0-8 4.418-8 0v-136c0-4.418 3.582 0 8 0s8-4.418 8 0v136c0 4.418-3.582 0-8 0z" fill="#0276b4"/><path d="m328 392a8 8 0 0 1 -8-8v-128c0-4.418 3.582 0 8 0s8-4.418 8 0v128a8 8 0 0 1 -8 8z" fill="#0276b4"/><g fill="#0296e5"><path d="m151.992 416a8 8 0 0 1 -7.821-6.353l-32-152a8 8 0 0 1 7.829-9.647h272a8 8 0 0 1 8 8v104.24a26.082 26.082 0 0 1 -22.564 25.773l-224.379 29.917a7.993 7.993 0 0 1 -1.065.07zm-22.133-152 28.441 135.089 217.023-28.936a10.033 10.033 0 0 0 8.677-9.913v-96.24z"/><path d="m376 464h-203.7a23.062 23.062 0 0 1 -22.553-18.489l-42.698-213.472a10.026 10.026 0 0 0 -9.805-8.039h-33.244a8 8 0 0 1 0-16h33.244a26.071 26.071 0 0 1 25.5 20.9l42.694 213.472a7.019 7.019 0 0 0 6.862 5.628h203.7a8 8 0 0 1 0 16z"/><path d="m392 312h-256a8 8 0 0 1 0-16h256a8 8 0 0 1 0 16z"/><path d="m392 360h-248a8 8 0 0 1 0-16h248a8 8 0 0 1 0 16z"/></g><circle cx="216" cy="456" fill="#0276b4" r="32"/><circle cx="216" cy="456" fill="#0296e5" r="13"/><circle cx="360" cy="456" fill="#0276b4" r="32"/><circle cx="360" cy="456" fill="#0296e5" r="13"/><path d="m288 160v-120h-64v120h-32l64 64 64-64z" fill="#fbb540"/><circle cx="43" cy="216" fill="#0276b4" r="24"/><path d="m320 72a8 8 0 0 1 -8-8v-40a8 8 0 0 1 16 0v40a8 8 0 0 1 -8 8z" fill="#f7ba61"/><path d="m320 112a8 8 0 0 1 -8-8v-8a8 8 0 0 1 16 0v8a8 8 0 0 1 -8 8z" fill="#f7ba61"/></g></svg>